<?xml version="1.0" standalone="no"?>
<svg version="1.1" xmlns="http://www.w3.org/2000/svg" xmlns:xlink="http://www.w3.org/1999/xlink" x="0px" y="0px" width="1297px" height="178px" viewBox="0 0 1297 178" enable-background="new 0 0 1297 178" xml:space="preserve"><polygon fill="#FFFFFF" points="1297,178 0,178 0,0 1297,0"/><path xmlns="http://www.w3.org/2000/svg" fill="#141412" font-weight="bold" d="M88.09 129.04Q75.99 129.04 66.36 123.92Q56.74 118.81 51.24 109.68Q45.74 100.55 45.74 89L45.74 89Q45.74 77.45 51.24 68.32Q56.74 59.19 66.36 54.08Q75.99 48.96 88.09 48.96L88.09 48.96Q98.65 48.96 107.12 52.70Q115.59 56.44 121.20 63.48L121.20 63.48L107.34 76.02Q99.86 67 89.19 67L89.19 67Q82.92 67 78.03 69.75Q73.13 72.50 70.44 77.50Q67.74 82.51 67.74 89L67.74 89Q67.74 95.49 70.44 100.50Q73.13 105.50 78.03 108.25Q82.92 111 89.19 111L89.19 111Q99.86 111 107.34 101.98L107.34 101.98L121.20 114.52Q115.59 121.56 107.12 125.30Q98.65 129.04 88.09 129.04L88.09 129.04ZM152.44 110.67L192.70 110.67L192.70 127.50L130.88 127.50L130.88 50.50L191.27 50.50L191.27 67.33L152.44 67.33L152.44 80.31L186.65 80.31L186.65 96.59L152.44 96.59L152.44 110.67ZM260.24 50.50L281.80 50.50L248.80 127.50L227.35 127.50L194.46 50.50L218.00 50.50L238.90 100.66L260.24 50.50ZM286.31 127.50L286.31 50.50L308.09 50.50L308.09 127.50L286.31 127.50Z"/><g><path fill="#323394" d="M334.931,73.371c-0.181-0.641-0.267-1.301-0.327-1.85l12.602,12.581 C340.397,81.64,336.158,81.975,334.931,73.371"/><path fill="#c41333" d="M415.722,115.954c-8.831,2.554-17.685,4.158-26.022,4.703l31.227,31.223l11.095-41.367 C427.111,112.417,421.689,114.222,415.722,115.954"/><path fill="#c41333" d="M443.51,64.399c-11.379,7.401-25.311,13.781-38.275,17.489c-17.806,5.161-35.959,6.776-49.823,4.384 l-21.157-21.185l117.507-31.565L443.51,64.399"/><path fill="#323394" d="M460.756,86.589c-8.896,10.981-23.162,18.734-46.193,25.432c-23.495,6.697-46.936,6.516-59.736-0.58 c-4.496-2.516-7.312-5.601-8.392-9.293l-6.739-16.765c0.268,0.129,0.535,0.267,0.766,0.5c13.803,7.585,39.672,7.634,65.947,0.128 c21.021-6.073,43.057-18.351,54.348-30.131V86.589"/><path fill="#323394" d="M420.924,37.621l-82.082,21.879c8.453-12.008,28.283-23.847,51.221-30.49 c6.447-1.871,20.849-4.191,30.861-3.807V37.621"/></g><path xmlns="http://www.w3.org/2000/svg" fill="#141412" font-weight="bold" d="M518.34 110.23L558.82 110.23L558.82 127.50L489.85 127.50L489.85 113.86L528.68 67.77L490.84 67.77L490.84 50.50L557.17 50.50L557.17 64.14L518.34 110.23ZM606.56 129.04Q594.35 129.04 584.62 123.87Q574.88 118.70 569.33 109.57Q563.77 100.44 563.77 89L563.77 89Q563.77 77.56 569.33 68.43Q574.88 59.30 584.62 54.13Q594.35 48.96 606.56 48.96L606.56 48.96Q618.77 48.96 628.51 54.13Q638.24 59.30 643.80 68.43Q649.35 77.56 649.35 89L649.35 89Q649.35 100.44 643.80 109.57Q638.24 118.70 628.51 123.87Q618.77 129.04 606.56 129.04L606.56 129.04ZM606.56 111Q612.39 111 617.12 108.25Q621.85 105.50 624.60 100.50Q627.35 95.49 627.35 89L627.35 89Q627.35 82.51 624.60 77.50Q621.85 72.50 617.12 69.75Q612.39 67 606.56 67L606.56 67Q600.73 67 596.00 69.75Q591.27 72.50 588.52 77.50Q585.77 82.51 585.77 89L585.77 89Q585.77 95.49 588.52 100.50Q591.27 105.50 596.00 108.25Q600.73 111 606.56 111L606.56 111ZM695.99 50.50Q706.44 50.50 714.14 53.97Q721.84 57.43 726.02 63.87Q730.20 70.30 730.20 78.99L730.20 78.99Q730.20 87.68 726.02 94.06Q721.84 100.44 714.14 103.91Q706.44 107.37 695.99 107.37L695.99 107.37L682.57 107.37L682.57 127.50L660.79 127.50L660.79 50.50L695.99 50.50ZM694.67 90.21Q701.38 90.21 704.79 87.30Q708.20 84.38 708.20 78.99L708.20 78.99Q708.20 73.60 704.79 70.63Q701.38 67.66 694.67 67.66L694.67 67.66L682.57 67.66L682.57 90.21L694.67 90.21ZM801.15 67.33L762.54 67.33L762.54 84.27L796.53 84.27L796.53 101.10L762.54 101.10L762.54 127.50L740.76 127.50L740.76 50.50L801.15 50.50L801.15 67.33ZM866.05 127.50L860.00 112.54L827.44 112.54L821.39 127.50L799.17 127.50L833.16 50.50L854.61 50.50L888.71 127.50L866.05 127.50ZM833.82 96.48L853.62 96.48L843.72 71.84L833.82 96.48ZM946.57 127.50L924.57 99.56L916.43 108.25L916.43 127.50L894.87 127.50L894.87 50.50L916.43 50.50L916.43 82.51L946.24 50.50L970.22 50.50L938.76 84.60L971.87 127.50L946.57 127.50ZM988.26 127.50L988.26 67.77L964.61 67.77L964.61 50.50L1033.58 50.50L1033.58 67.77L1010.04 67.77L1010.04 127.50L988.26 127.50ZM1041.72 127.50L1041.72 50.50L1063.50 50.50L1063.50 127.50L1041.72 127.50ZM1117.84 129.04Q1105.63 129.04 1095.90 123.87Q1086.16 118.70 1080.61 109.57Q1075.05 100.44 1075.05 89L1075.05 89Q1075.05 77.56 1080.61 68.43Q1086.16 59.30 1095.90 54.13Q1105.63 48.96 1117.84 48.96L1117.84 48.96Q1130.05 48.96 1139.79 54.13Q1149.52 59.30 1155.08 68.43Q1160.63 77.56 1160.63 89L1160.63 89Q1160.63 100.44 1155.08 109.57Q1149.52 118.70 1139.79 123.87Q1130.05 129.04 1117.84 129.04L1117.84 129.04ZM1117.84 111Q1123.67 111 1128.40 108.25Q1133.13 105.50 1135.88 100.50Q1138.63 95.49 1138.63 89L1138.63 89Q1138.63 82.51 1135.88 77.50Q1133.13 72.50 1128.40 69.75Q1123.67 67 1117.84 67L1117.84 67Q1112.01 67 1107.28 69.75Q1102.55 72.50 1099.80 77.50Q1097.05 82.51 1097.05 89L1097.05 89Q1097.05 95.49 1099.80 100.50Q1102.55 105.50 1107.28 108.25Q1112.01 111 1117.84 111L1117.84 111ZM1223.99 50.50L1245.33 50.50L1245.33 127.50L1227.40 127.50L1193.41 86.47L1193.41 127.50L1172.07 127.50L1172.07 50.50L1190.00 50.50L1223.99 91.53L1223.99 50.50Z"/></svg>